<svg xmlns="http://www.w3.org/2000/svg" viewBox="0 0 100 100">
  <defs>
    <linearGradient id="grad1" x1="0%" y1="0%" x2="100%" y2="100%">
      <stop offset="0%" style="stop-color:#3b82f6;stop-opacity:1" />
      <stop offset="100%" style="stop-color:#60a5fa;stop-opacity:1" />
    </linearGradient>
  </defs>
  <rect width="100" height="100" rx="20" fill="url(#grad1)"/>
  <path d="M30 25 h40 a5 5 0 0 1 5 5 v40 a5 5 0 0 1 -5 5 h-40 a5 5 0 0 1 -5 -5 v-40 a5 5 0 0 1 5 -5" fill="#fff" fill-opacity="0.9"/>
  <rect x="35" y="20" width="10" height="10" rx="3" fill="#3b82f6"/>
  <rect x="55" y="20" width="10" height="10" rx="3" fill="#3b82f6"/>
  <rect x="35" y="40" width="30" height="6" rx="2" fill="#dbeafe"/>
  <rect x="35" y="52" width="30" height="6" rx="2" fill="#dbeafe"/>
  <path d="M35 64 l10 8 l20 -16" stroke="#34d399" stroke-width="6" fill="none" stroke-linecap="round" stroke-linejoin="round"/>
</svg>
